#!OML:ASF F:\VICON\USERDATA\INSTALL\rory3\rory3.ASF
:FULLY-SPECIFIED
:DEGREES
1030
root 10.0884 14.646 -6.65478 186.26 50.261 179.711
lowerback 26.3283 2.5795 -1.41678
upperback 6.77801 3.94492 1.0916
thorax -7.19807 2.27329 0.716675
lowerneck -13.0808 -5.87671 -10.3933
upperneck 35.63 -4.71616 3.90312
head 15.0105 -2.21004 2.85082
rclavicle -3.33958e-014 4.37326e-015
rhumerus -0.0212359 26.0553 -81.6264
rradius 47.4975
rwrist 19.6785
rhand -32.0154 13.5399
rfingers 7.12502
rthumb -5.26361 -16.3748
lclavicle -3.33958e-014 4.37326e-015
lhumerus -28.5231 -33.0178 96.6031
lradius 79.6372
lwrist -1.59317
lhand -33.8212 33.2793
lfingers 7.12502
lthumb -7.00694 63.1434
rfemur -62.9501 -32.3418 32.1974
rtibia 88.7669
rfoot -23.9381 12.8918
rtoes 13.1414
lfemur -57.4744 18.5749 -23.2263
ltibia 85.6718
lfoot -21.7111 -9.52766
ltoes -3.86087
1031
root 10.0984 14.4761 -6.66696 186.564 50.0872 179.802
lowerback 26.3348 2.63871 -1.42822
upperback 6.80187 4.02928 1.16457
thorax -7.18343 2.31546 0.776582
lowerneck -12.9107 -5.93048 -10.4907
upperneck 35.5072 -4.77017 3.86524
head 14.9223 -2.251 2.84074
rclavicle -1.25234e-013 -3.33958e-014
rhumerus 0.674879 24.5923 -82.0626
rradius 45.6234
rwrist 20.0427
rhand -32.3032 13.6688
rfingers 7.12502
rthumb -5.54145 -16.2387
lclavicle -1.25234e-013 -3.33958e-014
lhumerus -28.9539 -33.5397 96.6602
lradius 80.0786
lwrist -2.41513
lhand -33.8715 32.3949
lfingers 7.12502
lthumb -7.05551 62.2573
rfemur -64.6557 -32.9995 32.6596
rtibia 90.8364
rfoot -24.1484 13.4551
rtoes 13.6179
lfemur -58.9009 18.6878 -23.3051
ltibia 87.608
lfoot -22.4381 -9.61995
ltoes -5.2353
1032
root 10.11 14.2971 -6.67988 186.751 49.9435 179.769
lowerback 26.3718 2.71128 -1.56628
upperback 6.81809 4.09637 1.23454
thorax -7.19941 2.35036 0.909117
lowerneck -12.8653 -6.01598 -10.7156
upperneck 35.5665 -4.81206 3.85749
head 14.9573 -2.29742 2.87198
rclavicle 1.63003e-014 5.24792e-014
rhumerus 1.13858 23.4347 -82.4589
rradius 44.3225
rwrist 20.0653
rhand -32.5256 13.1661
rfingers 7.12502
rthumb -5.75618 -16.7357
lclavicle 1.63003e-014 5.24792e-014
lhumerus -29.3756 -33.9834 96.7092
lradius 80.4867
lwrist -3.29407
lhand -33.7471 31.338
lfingers 7.12502
lthumb -6.93543 61.2044
rfemur -66.3395 -33.617 33.045
rtibia 92.9013
rfoot -24.3699 13.8766
rtoes 12.9199
lfemur -60.3132 18.8428 -23.4684
ltibia 89.5673
lfoot -23.1221 -9.6964
ltoes -6.90711
1033
root 10.125 14.1265 -6.69683 186.898 49.838 179.963
lowerback 26.5886 2.76028 -1.45893
upperback 6.87988 4.20625 1.29375
thorax -7.23958 2.40749 0.868273
lowerneck -12.8252 -6.12329 -10.8871
upperneck 35.6859 -4.85554 3.75622
head 15.0183 -2.34779 2.85608
rclavicle 1.80099e-013 -1.03368e-014
rhumerus 1.52 22.2469 -82.8591
rradius 43.0961
rwrist 19.9986
rhand -32.6251 12.6805
rfingers 7.12502
rthumb -5.85231 -17.2187
lclavicle 1.80099e-013 -1.03368e-014
lhumerus -29.8255 -34.4917 96.7446
lradius 80.9656
lwrist -4.14611
lhand -33.3149 30.6559
lfingers 7.12502
lthumb -6.51822 60.5356
rfemur -67.748 -34.4487 33.4952
rtibia 94.8592
rfoot -24.4398 14.7129
rtoes 13.1481
lfemur -61.4037 19.1007 -23.3814
ltibia 91.5024
lfoot -23.8389 -10.0857
ltoes -7.0143
1034
root 10.1427 13.9694 -6.71773 186.882 49.796 180.225
lowerback 26.9008 2.85082 -1.31077
upperback 7.0512 4.39911 1.36301
thorax -7.2047 2.51104 0.786382
lowerneck -12.8786 -6.24688 -10.9412
upperneck 35.7731 -4.97688 3.70096
head 15.0878 -2.4114 2.82312
rclavicle 8.78628e-014 -1.98785e-014
rhumerus 2.03358 20.7777 -83.27
rradius 41.6865
rwrist 20.0872
rhand -32.8741 12.1474
rfingers 7.12502
rthumb -6.09266 -17.745
lclavicle 8.78628e-014 -1.98785e-014
lhumerus -30.223 -35.2023 96.7506
lradius 81.4429
lwrist -4.93818
lhand -33.352 30.1031
lfingers 7.12502
lthumb -6.55402 59.9816
rfemur -68.6863 -35.178 33.7727
rtibia 96.6583
rfoot -24.5777 15.3931
rtoes 12.9935
lfemur -62.1264 19.4788 -23.1853
ltibia 93.3734
lfoot -24.6309 -10.5511
ltoes -6.14479
1035
root 10.1605 13.8026 -6.74404 186.938 49.712 180.505
lowerback 27.0517 2.91965 -1.12714
upperback 7.23061 4.57834 1.48839
thorax -7.08238 2.60777 0.758916
lowerneck -12.8664 -6.35363 -11.2564
upperneck 35.8586 -5.0881 3.88984
head 15.1613 -2.4729 2.9421
rclavicle 3.49861e-014 -2.3059e-014
rhumerus 2.53602 19.2685 -83.6826
rradius 40.2963
rwrist 20.4683
rhand -33.2509 11.4598
rfingers 7.12502
rthumb -6.45647 -18.4217
lclavicle 3.49861e-014 -2.3059e-014
lhumerus -30.6431 -35.8758 96.8871
lradius 81.9046
lwrist -5.70998
lhand -33.4087 29.4163
lfingers 7.12502
lthumb -6.6088 59.2932
rfemur -69.6071 -35.6908 34.0322
rtibia 98.4404
rfoot -25.0256 15.588
rtoes 10.7504
lfemur -62.9552 19.8143 -23.0122
ltibia 95.2947
lfoot -25.5124 -10.727
ltoes -7.04864
1036
root 10.1762 13.6121 -6.76789 187.166 49.477 180.823
lowerback 27.109 2.92814 -0.919518
upperback 7.36532 4.68455 1.66124
thorax -6.96413 2.66716 0.797304
lowerneck -12.7575 -6.41996 -11.4784
upperneck 35.7602 -5.13654 3.90368
head 15.1072 -2.52089 2.97633
rclavicle 1.98785e-014 -4.92986e-014
rhumerus 3.02512 18.1362 -83.9373
rradius 39.1082
rwrist 20.5022
rhand -33.6867 10.6096
rfingers 7.12502
rthumb -6.87714 -19.2587
lclavicle 1.98785e-014 -4.92986e-014
lhumerus -31.0561 -36.2622 97.1213
lradius 82.3592
lwrist -6.49858
lhand -33.1053 28.5022
lfingers 7.12502
lthumb -6.31591 58.388
rfemur -71.163 -36.8258 34.7699
rtibia 100.397
rfoot -25.3815 15.9988
rtoes 9.2175
lfemur -64.1015 20.0044 -22.8737
ltibia 97.3323
lfoot -26.6218 -10.3198
ltoes -10.7289
1037
root 10.1892 13.4548 -6.78205 187.419 49.1669 181.19
lowerback 27.2745 2.88109 -0.711392
upperback 7.42945 4.71135 1.80344
thorax -6.97241 2.68571 0.818951
lowerneck -12.6127 -6.42741 -11.5143
upperneck 35.6722 -5.13585 3.8648
head 15.0324 -2.52929 2.96578
rclavicle 5.32743e-014 -8.26944e-014
rhumerus 3.38961 17.0255 -84.3318
rradius 37.9446
rwrist 20.5724
rhand -34.2095 10.1252
rfingers 7.12502
rthumb -7.3818 -19.726
lclavicle 5.32743e-014 -8.26944e-014
lhumerus -31.5586 -36.5569 97.261
lradius 82.8717
lwrist -7.01011
lhand -33.1298 28.1228
lfingers 7.12502
lthumb -6.33951 58.0079
rfemur -72.2174 -37.0679 35.0795
rtibia 102.217
rfoot -25.3933 16.0237
rtoes 9.48726
lfemur -65.069 20.1268 -22.6401
ltibia 99.1446
lfoot -27.4788 -9.99456
ltoes -12.7414
1038
root 10.2061 13.2866 -6.80638 187.462 48.967 181.396
lowerback 27.4939 2.8609 -0.603739
upperback 7.47727 4.74301 1.92829
thorax -7.03057 2.70623 0.873662
lowerneck -12.384 -6.42928 -11.7018
upperneck 35.6595 -5.08668 3.86311
head 14.9798 -2.5293 3.00983
rclavicle -6.75868e-015 4.05521e-014
rhumerus 3.54753 16.1238 -84.661
rradius 37.0572
rwrist 20.4938
rhand -34.71 9.93859
rfingers 7.12502
rthumb -7.8649 -19.8951
lclavicle -6.75868e-015 4.05521e-014
lhumerus -32.2128 -36.8137 97.4825
lradius 83.4242
lwrist -7.35418
lhand -33.2049 27.4568
lfingers 7.12502
lthumb -6.41203 57.3397
rfemur -73.6197 -38.7198 35.8013
rtibia 104.025
rfoot -25.4508 17.1805
rtoes 10.4415
lfemur -65.9099 20.2638 -22.4886
ltibia 100.971
lfoot -28.213 -9.36158
ltoes -14.1707
1039
root 10.2234 13.1044 -6.83176 187.474 48.7687 181.629
lowerback 27.7739 2.85218 -0.473945
upperback 7.54099 4.80383 2.08117
thorax -7.10196 2.74227 0.934173
lowerneck -12.1938 -6.4822 -11.976
upperneck 35.6722 -5.06885 3.82575
head 14.9566 -2.55861 3.04818
rclavicle 7.95139e-016 -2.54444e-014
rhumerus 3.81715 15.1347 -84.9931
rradius 36.0223
rwrist 20.5937
rhand -35.2554 9.71762
rfingers 7.12502
rthumb -8.39121 -20.0957
lclavicle 7.95139e-016 -2.54444e-014
lhumerus -32.8623 -36.9879 97.8269
lradius 83.9491
lwrist -7.72232
lhand -33.2199 26.6972
lfingers 7.12502
lthumb -6.42654 56.5797
rfemur -74.5659 -38.9763 36.0784
rtibia 105.791
rfoot -25.985 16.0156
rtoes 7.43967
lfemur -66.753 20.3851 -22.3166
ltibia 102.837
lfoot -28.9133 -8.77184
ltoes -15.8434
